<!DOCTYPE svg PUBLIC "-//W3C//DTD SVG 20010904//EN" "http://www.w3.org/TR/2001/REC-SVG-20010904/DTD/svg10.dtd">
<svg version="1.0" xmlns="http://www.w3.org/2000/svg" width="1600px" height="474px" viewBox="0 0 16000 4740" preserveAspectRatio="xMidYMid meet">
<g id="layer101" fill="#4a361e" stroke="none">
 <path d="M3115 4078 c-3 -7 -4 -171 -3 -363 l3 -350 25 0 25 0 3 332 2 333 183 2 182 3 0 25 0 25 -208 3 c-161 2 -209 0 -212 -10z"/>
 <path d="M3687 4084 c-4 -4 -7 -119 -7 -255 0 -210 2 -248 15 -253 8 -3 22 -3 30 0 13 5 15 41 13 258 -3 244 -4 251 -23 254 -12 2 -24 0 -28 -4z"/>
 <path d="M4123 4078 c-5 -7 -23 -47 -40 -88 -18 -41 -58 -136 -89 -210 -64 -153 -72 -195 -35 -195 19 0 27 9 42 50 11 28 24 58 29 67 5 10 30 67 55 128 63 157 58 152 89 85 14 -32 26 -59 26 -61 0 -2 11 -28 25 -58 14 -30 25 -57 25 -60 0 -3 14 -35 30 -71 17 -36 30 -70 30 -76 0 -6 12 -9 28 -7 43 5 37 30 -59 245 -11 23 -19 44 -19 47 0 3 -11 30 -25 60 -14 30 -25 57 -25 60 0 4 -9 26 -21 51 -21 45 -47 58 -66 33z"/>
 <path d="M4694 4080 c-46 -14 -119 -83 -143 -135 -31 -66 -29 -167 4 -229 49 -92 123 -138 222 -138 127 0 229 86 249 212 5 31 3 44 -7 51 -8 5 -107 9 -222 9 l-207 0 6 28 c38 156 210 203 320 86 55 -57 99 -28 54 36 -36 50 -102 82 -178 86 -37 2 -81 -1 -98 -6z m266 -295 c0 -3 -9 -23 -20 -45 -23 -45 -69 -82 -122 -99 -80 -26 -193 39 -213 122 l-7 27 181 0 c100 0 181 -2 181 -5z"/>
 <path d="M5734 4033 c-14 -32 -44 -103 -66 -158 -22 -55 -51 -124 -64 -153 -13 -29 -24 -55 -24 -58 0 -3 -8 -24 -19 -47 -86 -192 -101 -239 -82 -251 27 -17 48 7 86 97 21 50 49 116 62 145 13 29 23 55 23 58 0 3 9 24 19 47 10 23 38 87 61 142 40 96 60 133 60 107 0 -6 11 -36 25 -66 14 -30 25 -57 25 -60 0 -3 11 -29 24 -58 54 -119 86 -197 86 -207 0 -15 36 -32 53 -25 16 6 18 11 102 214 85 206 88 211 95 203 4 -4 21 -42 38 -83 17 -41 56 -136 87 -210 32 -74 66 -157 77 -184 28 -72 57 -126 67 -126 44 0 50 25 21 85 -11 22 -19 43 -20 47 0 4 -13 37 -30 73 -16 36 -30 68 -30 71 0 3 -8 24 -19 47 -10 23 -47 110 -81 192 -88 214 -89 215 -115 215 -16 0 -26 -9 -35 -32 -7 -18 -21 -51 -30 -73 -10 -22 -31 -71 -47 -110 -17 -38 -43 -100 -59 -138 -16 -37 -33 -66 -38 -64 -7 2 -50 96 -72 157 -3 8 -29 69 -57 135 -42 97 -57 121 -75 123 -18 3 -26 -6 -48 -55z"/>
 <path d="M6642 4078 c-9 -9 -12 -74 -12 -250 0 -221 1 -238 19 -247 13 -7 23 -7 35 2 15 11 16 39 14 257 -3 237 -4 245 -23 248 -11 1 -26 -3 -33 -10z"/>
 <path d="M7003 4080 c-39 -16 -43 -40 -43 -249 l0 -201 -45 0 c-41 0 -45 -2 -45 -24 0 -26 16 -36 61 -36 l29 0 0 -99 c0 -79 3 -100 15 -105 38 -14 45 3 45 105 l0 99 29 0 c45 0 61 10 61 36 0 22 -4 24 -45 24 l-45 0 2 192 c3 192 3 192 27 204 68 34 27 83 -46 54z"/>
 <path d="M7336 4075 c-9 -25 -7 -688 3 -703 4 -8 19 -12 32 -10 24 3 24 4 27 135 l3 131 46 -26 c87 -49 213 -27 276 48 40 47 48 94 45 272 -3 147 -5 163 -21 166 -42 8 -47 -12 -47 -185 0 -176 -7 -206 -52 -235 -77 -49 -149 -41 -210 23 l-38 39 -2 178 -3 177 -26 3 c-17 2 -29 -3 -33 -13z"/>
 <path d="M8477 4084 c-4 -4 -7 -155 -7 -336 l0 -328 -114 0 c-106 0 -115 -2 -121 -20 -3 -11 -3 -24 0 -30 4 -6 103 -10 270 -10 167 0 266 4 270 10 3 6 3 19 0 30 -6 19 -15 20 -126 20 l-119 0 -2 333 c-3 326 -3 332 -23 335 -12 2 -24 0 -28 -4z"/>
 <path d="M8944 4077 c-2 -7 -3 -120 -2 -252 l3 -240 30 0 c29 0 30 2 35 50 l5 49 16 -25 c27 -40 111 -81 161 -77 34 2 43 7 43 22 0 14 -14 23 -52 36 -76 25 -105 51 -148 134 -23 45 -25 61 -25 171 0 81 -4 125 -12 133 -16 16 -47 15 -54 -1z"/>
 <path d="M9496 4075 c-52 -18 -110 -77 -137 -139 -17 -41 -21 -64 -17 -121 5 -72 26 -118 77 -172 83 -87 250 -87 331 -1 l20 22 0 -41 c0 -42 15 -58 45 -47 13 5 15 41 13 258 l-3 251 -25 0 c-22 0 -25 -5 -28 -37 l-3 -38 -37 29 c-66 51 -155 65 -236 36z m158 -59 c76 -32 125 -137 105 -226 -17 -75 -43 -107 -118 -142 -52 -24 -90 -19 -150 20 -48 31 -91 109 -91 167 0 41 37 120 72 152 46 43 120 55 182 29z"/>
 <path d="M10156 4076 c-48 -18 -110 -78 -136 -131 -28 -57 -27 -164 0 -221 65 -132 210 -185 337 -120 28 14 55 31 60 38 4 7 10 -48 13 -126 4 -113 8 -141 21 -149 9 -6 24 -7 33 -4 14 6 16 42 16 362 0 320 -2 356 -16 362 -24 9 -49 -10 -52 -40 l-3 -25 -49 30 c-60 37 -160 48 -224 24z m149 -56 c177 -67 163 -328 -21 -379 -72 -20 -160 25 -198 101 -32 63 -33 117 -5 175 43 88 142 134 224 103z"/>
 <path d="M10717 4083 c-4 -3 -7 -116 -7 -249 0 -230 1 -244 19 -254 15 -7 23 -6 35 6 14 13 16 50 16 244 0 126 -3 235 -6 244 -6 16 -45 22 -57 9z"/>
 <path d="M11064 4066 l-29 -24 -3 -206 -3 -206 -39 0 c-24 0 -40 -5 -44 -15 -8 -21 21 -45 55 -45 l29 0 0 -94 c0 -73 3 -96 16 -107 11 -9 20 -10 32 -2 14 8 18 30 20 107 l3 96 33 0 c37 0 62 21 52 45 -3 10 -19 15 -46 15 l-40 0 2 192 3 193 28 13 c20 10 27 20 25 35 -5 33 -58 35 -94 3z"/>
 <path d="M11420 3837 c0 -210 2 -256 14 -260 8 -3 21 0 30 6 14 11 16 41 14 257 l-3 245 -27 3 -28 3 0 -254z"/>
 <path d="M11835 4075 c-51 -18 -127 -99 -143 -152 -53 -177 61 -345 232 -345 168 0 282 164 232 335 -20 70 -92 147 -153 165 -53 16 -118 15 -168 -3z m161 -61 c118 -56 144 -221 50 -319 -57 -59 -109 -74 -173 -50 -127 48 -171 200 -90 308 56 73 138 96 213 61z"/>
 <path d="M12350 3835 l0 -255 25 0 c18 0 26 7 31 25 l6 24 39 -24 c85 -55 225 -21 282 67 34 52 39 91 35 268 l-3 145 -25 0 -25 0 -5 -171 c-5 -169 -5 -171 -34 -208 -38 -51 -101 -79 -146 -66 -46 13 -78 36 -100 73 -18 28 -20 51 -20 189 0 86 -3 163 -6 172 -3 9 -17 16 -30 16 l-24 0 0 -255z"/>
 <path d="M13047 4076 c-60 -22 -119 -65 -115 -84 5 -28 37 -26 104 8 54 28 71 32 116 28 44 -5 57 -11 85 -42 32 -35 33 -37 18 -66 -19 -37 -29 -42 -145 -74 -121 -33 -155 -63 -155 -135 0 -39 5 -55 25 -76 61 -64 165 -77 263 -31 46 22 57 32 57 52 0 32 -30 32 -94 -1 -61 -31 -103 -32 -147 -2 -24 16 -35 31 -37 54 -4 38 16 59 71 73 128 33 175 52 200 78 56 59 42 145 -34 197 -48 34 -151 44 -212 21z"/>
 <path d="M3684 3486 c-3 -8 -4 -27 -2 -43 2 -22 8 -28 28 -28 20 0 26 6 28 28 5 45 -40 80 -54 43z"/>
 <path d="M6640 3486 c-15 -19 -9 -56 11 -69 25 -16 49 -1 49 31 0 46 -35 68 -60 38z"/>
 <path d="M10721 3486 c-7 -8 -11 -27 -9 -43 2 -22 8 -28 27 -28 33 0 48 26 33 59 -13 29 -33 33 -51 12z"/>
 <path d="M11424 3486 c-3 -8 -4 -27 -2 -43 2 -22 8 -28 28 -28 20 0 26 6 28 28 5 45 -40 80 -54 43z"/>
 <path d="M395 2504 l-25 -27 0 -906 c0 -878 1 -907 20 -931 l19 -25 217 -3 c262 -4 359 6 448 47 91 41 176 128 224 228 l37 78 0 135 c0 130 -1 137 -30 195 -16 32 -53 84 -81 115 l-52 55 36 13 c20 7 39 16 42 20 3 4 17 13 31 20 39 20 131 111 168 165 39 57 76 161 85 239 7 57 -8 206 -24 237 -4 9 -21 43 -36 76 -38 81 -147 190 -234 232 -115 57 -161 63 -508 63 l-313 0 -24 -26z m637 -123 c37 -5 92 -20 123 -35 72 -33 162 -123 200 -201 28 -55 30 -69 30 -165 0 -100 -2 -108 -34 -170 -69 -132 -178 -212 -313 -230 -40 -5 -173 -10 -295 -10 l-223 0 0 410 0 410 223 0 c122 -1 252 -5 289 -9z m-29 -985 c62 -30 137 -97 161 -144 79 -152 28 -342 -119 -441 -66 -44 -105 -50 -327 -51 l-198 0 0 336 0 336 213 -4 c210 -3 213 -3 270 -32z"/>
 <path d="M1977 2512 c-16 -17 -17 -97 -17 -940 l0 -921 27 -21 c30 -23 65 -21 96 7 16 15 17 46 17 375 l0 360 44 -42 c108 -103 208 -142 366 -142 169 0 299 48 406 149 48 46 114 132 114 150 0 4 7 20 15 36 29 57 35 144 35 549 l0 409 -26 24 c-33 30 -61 31 -94 4 l-25 -21 -5 -442 -5 -441 -30 -59 c-37 -73 -110 -140 -195 -180 -61 -28 -73 -30 -180 -31 -113 0 -116 1 -192 38 -94 46 -150 100 -192 187 l-31 65 -3 430 c-3 422 -3 430 -24 452 -26 28 -78 31 -101 5z"/>
 <path d="M3948 2505 c-198 -55 -364 -220 -437 -434 -27 -80 -38 -238 -23 -336 29 -184 155 -369 318 -467 238 -144 566 -93 762 119 l42 46 0 -106 c0 -103 1 -106 27 -127 30 -23 65 -21 96 7 16 15 17 59 17 648 l0 632 -23 21 c-29 28 -67 28 -95 2 -20 -19 -22 -31 -22 -126 l0 -106 -46 51 c-71 78 -186 147 -296 176 -118 32 -204 31 -320 0z m318 -145 c137 -47 254 -168 311 -322 24 -63 27 -88 27 -183 0 -95 -4 -120 -28 -183 -90 -239 -298 -374 -528 -342 -237 34 -428 268 -428 524 0 260 180 482 430 530 46 9 156 -4 216 -24z"/>
 <path d="M5325 2505 l-25 -24 0 -624 0 -624 23 -21 c29 -27 78 -29 100 -4 14 16 17 43 17 171 l0 152 60 -80 c127 -168 291 -261 463 -261 57 0 68 3 81 22 9 12 16 34 16 48 0 46 -20 61 -99 71 -210 26 -377 187 -490 472 l-31 78 0 309 c0 308 0 309 -22 324 -32 23 -65 20 -93 -9z"/>
 <path d="M6825 2506 c-44 -12 -105 -35 -135 -52 -60 -32 -207 -172 -230 -219 -8 -17 -19 -37 -26 -45 -26 -34 -65 -161 -76 -247 -21 -166 17 -333 105 -467 49 -73 153 -176 204 -202 21 -10 45 -24 53 -30 38 -30 165 -56 265 -56 166 0 311 59 429 174 l61 59 5 -100 c6 -113 17 -134 71 -134 21 0 38 7 51 22 17 22 18 56 18 650 l0 628 -23 21 c-30 29 -58 28 -91 -3 -25 -23 -26 -29 -26 -121 l0 -96 -74 69 c-164 153 -373 206 -581 149z m323 -150 c139 -55 241 -160 298 -306 26 -68 29 -86 29 -195 0 -101 -4 -130 -23 -183 -132 -354 -541 -460 -797 -206 -108 107 -156 226 -156 389 1 175 45 281 170 402 57 55 166 110 251 127 51 9 169 -5 228 -28z"/>
 <path d="M8410 2509 c-60 -27 -88 -54 -116 -114 l-24 -50 0 -506 0 -507 -106 -4 c-120 -4 -126 -8 -122 -78 4 -59 26 -70 141 -70 l87 0 0 -255 c0 -230 2 -258 18 -275 30 -32 66 -35 98 -7 l29 25 3 255 3 255 93 4 c109 4 136 18 136 74 0 56 -35 74 -141 74 l-89 0 0 498 0 498 28 26 c15 15 44 30 65 33 66 13 88 75 42 120 -30 31 -81 32 -145 4z"/>
 <path d="M9510 2506 c-128 -35 -208 -75 -307 -154 -53 -43 -59 -88 -17 -121 35 -28 43 -27 101 12 154 103 256 141 378 141 124 -1 208 -30 287 -102 86 -78 90 -173 12 -258 -58 -63 -167 -107 -339 -139 -242 -44 -373 -127 -415 -262 -23 -74 -21 -113 10 -194 37 -99 125 -173 255 -217 107 -36 252 -35 363 2 88 29 199 87 238 123 30 27 32 82 6 106 -29 26 -68 20 -130 -19 -31 -21 -86 -51 -122 -68 -61 -29 -73 -31 -175 -31 -101 0 -114 2 -165 29 -191 99 -200 254 -20 343 44 22 113 43 210 63 275 57 391 119 454 244 26 50 28 63 24 143 -4 110 -29 162 -109 238 -138 128 -341 174 -539 121z"/>
 <path d="M10835 2510 c-56 -22 -98 -62 -123 -118 -15 -33 -17 -93 -20 -549 l-3 -511 -100 -4 c-112 -3 -129 -13 -129 -73 0 -60 17 -70 129 -73 l101 -4 0 -240 c0 -197 3 -246 16 -273 25 -54 82 -55 118 -3 13 19 16 63 16 270 l0 248 89 0 c105 0 141 19 141 73 0 61 -30 77 -144 77 l-86 0 0 498 0 498 28 26 c15 15 44 30 65 34 29 5 44 15 58 38 25 40 24 42 -10 77 -35 35 -73 37 -146 9z"/>
 <path d="M11707 2512 c-16 -17 -17 -97 -17 -938 0 -768 2 -923 14 -939 18 -25 78 -25 106 0 19 18 20 28 20 378 l0 359 38 -38 c96 -99 222 -148 378 -147 172 2 303 54 416 167 67 67 103 132 128 232 18 71 20 111 20 484 l0 407 -26 27 c-31 31 -60 33 -94 6 l-25 -19 -5 -443 -5 -443 -29 -55 c-39 -74 -117 -146 -196 -183 -53 -24 -82 -30 -160 -34 -83 -5 -104 -2 -166 20 -114 40 -187 103 -241 208 l-28 54 -3 437 -3 437 -26 21 c-32 25 -75 26 -96 2z"/>
 <path d="M13677 2504 c-173 -47 -313 -167 -401 -343 -49 -98 -61 -158 -61 -311 1 -173 26 -261 110 -387 39 -58 156 -166 217 -200 242 -137 556 -86 753 122 l44 47 3 -107 c3 -104 4 -109 29 -128 22 -15 33 -17 55 -10 55 18 54 7 51 681 l-2 624 -24 19 c-30 25 -62 24 -89 -1 -20 -19 -22 -31 -22 -128 l0 -107 -45 52 c-68 78 -185 148 -297 178 -118 32 -204 31 -321 -1z m304 -139 c58 -20 87 -35 129 -65 87 -63 165 -167 193 -255 43 -140 46 -201 17 -319 -66 -262 -296 -431 -541 -396 -37 5 -87 18 -113 29 -123 53 -246 185 -282 304 -8 29 -20 62 -25 75 -5 13 -9 64 -9 113 0 144 37 247 130 358 76 91 167 146 285 171 53 12 161 4 216 -15z"/>
 <path d="M15074 2505 l-24 -24 2 -915 c3 -853 4 -916 20 -933 23 -23 87 -21 105 3 10 14 13 197 13 936 l0 917 -22 21 c-29 27 -64 25 -94 -5z"/>
 <path d="M15732 2507 l-22 -23 0 -631 c0 -587 1 -631 18 -646 30 -28 65 -30 95 -7 l27 21 0 634 0 634 -22 21 c-29 27 -69 25 -96 -3z"/>
 <path d="M15732 937 c-32 -34 -32 -134 1 -165 27 -26 64 -28 95 -6 19 13 22 24 22 85 0 56 -4 73 -20 89 -27 27 -71 26 -98 -3z"/>
 </g>

</svg>